<svg width="596" height="125" viewBox="0 0 596 125" fill="none" xmlns="http://www.w3.org/2000/svg">
<path d="M56.7537 120.409L54.4785 118.202L51.3896 120.956L55.1337 124.542L57.6141 122.342L59.9109 124.542L62.8629 121.845L59.1693 118.202L56.7537 120.409Z" fill="black"/>
<path d="M2.89746 28.1108C3.93427 27.6896 5.83147 26.102 6.64148 24.086V12.0728C5.36707 12.386 3.47706 14.3984 2.89746 16.094V28.1108Z" fill="black"/>
<path d="M14.4994 11.7546V28.113C16.1554 27.321 17.4262 26.1042 18.2758 24.0882V8.94656C18.2758 2.54213 16.4254 0.742123 12.8038 0.742123H3.90457C2.89657 1.75013 2.01097 5.29614 1.93896 7.62535H11.3386C13.5346 7.62535 14.4994 8.57936 14.4994 11.7546Z" fill="black"/>
<path d="M29.6869 0.741891H24.7513C23.4409 2.1207 22.1701 5.50471 22.1701 9.58713C22.1701 13.7703 24.1717 16.8916 25.9501 17.3164C26.7169 16.7296 28.2937 14.1339 28.4125 12.0207C26.8789 11.7003 25.7557 10.4295 25.7557 8.68712C25.7557 8.25872 25.9861 7.40912 26.1409 7.20032H29.0677C32.8837 7.20032 34.5073 9.95793 34.5073 15.6712C34.5073 16.9456 34.3093 19.0084 34.0789 19.9624C33.9277 20.65 33.6937 20.9668 33.3517 20.9668H23.5993C22.7533 21.9208 22.0153 25.3588 21.8965 27.5332H32.3077C33.5785 27.5332 34.2697 27.4252 35.2741 26.0464C37.2001 23.4544 38.129 17.1544 38.129 12.5499C38.129 3.97111 34.7701 0.741891 29.6869 0.741891Z" fill="black"/>
<path d="M46.0657 14.827C47.2969 13.0774 48.3409 9.63582 48.3409 6.51101C48.3409 2.32779 45.8713 0.740185 43.5601 0.740185H42.1741C41.2453 1.64019 40.4785 5.2438 40.4785 7.51901H42.4837C43.3693 7.51901 44.3305 8.31102 44.3305 9.79422C44.3305 12.073 43.7509 13.9774 42.2101 16.7855C42.7501 16.9943 45.1369 16.1518 46.0657 14.827Z" fill="black"/>
<path d="M65.2198 11.8088V28.1096C66.4546 27.5804 68.4922 25.8884 68.9603 24.092V9.52994C68.9603 2.49191 66.181 0.742307 62.7178 0.742307H52.8862C51.8458 1.85471 51.0718 5.66713 51.0718 7.62554H52.9222V28.1096C54.661 27.3212 56.1262 25.676 56.7022 24.092V7.46713H62.293C63.9454 7.46713 65.2198 8.68394 65.2198 11.8088Z" fill="black"/>
<path d="M94.357 11.6489V28.1118C95.7034 27.5322 97.2802 25.7286 97.7446 24.0906V9.31974C97.7446 2.43291 95.8186 0.740904 92.0818 0.740904H81.7534C80.5941 1.74891 79.7877 5.34892 79.6725 7.62413H81.9838C82.4878 7.62413 82.639 8.15333 82.7182 9.58254L83.1034 18.3198C83.1826 20.1198 82.639 20.9154 81.5986 20.9154H79.6329C78.7113 22.1826 78.2109 25.8366 78.2109 27.5322H82.5994C84.7162 27.5322 86.9914 24.8862 86.5702 19.5366L85.7638 9.53214C85.6846 8.41614 85.645 7.94453 85.4902 7.46933H91.5814C93.6982 7.46933 94.357 8.84094 94.357 11.6489Z" fill="black"/>
<path d="M120.218 10.4852C120.218 3.65594 117.173 0.585124 114.051 0.585124C112.856 0.585124 111.621 1.16833 111.085 1.75153C110.16 3.12673 109.235 7.14795 109.159 9.15676L109.389 9.31876C110.117 8.09836 111.161 7.14795 112.896 7.14795C114.861 7.14795 116.557 9.37276 116.557 13.1852C116.557 17.6852 114.743 21.5444 111.546 21.5444C107.575 21.5444 106.459 18.2648 106.459 10.4852V5.50635C106.459 2.06833 105.534 0.739926 103.262 0.739926H102.146C101.178 1.53553 100.252 5.29754 100.213 7.51875H101.217C102.373 7.51875 102.953 8.68156 102.953 10.4852C102.953 21.6056 104.994 28.1108 111.042 28.1108C116.942 28.1108 120.218 19.6436 120.218 10.4852Z" fill="black"/>
<path d="M128.16 14.827C129.391 13.0774 130.432 9.63582 130.432 6.51101C130.432 2.32779 127.966 0.740185 125.651 0.740185H124.265C123.34 1.64019 122.569 5.2438 122.569 7.51901H124.575C125.464 7.51901 126.421 8.31102 126.421 9.79422C126.421 12.073 125.842 13.9774 124.301 16.7855C124.841 16.9943 127.231 16.1518 128.16 14.827Z" fill="black"/>
<path d="M138.253 7.35808H145.536C148.157 7.35808 149.007 9.42449 149.007 12.7581C149.007 18.0537 146.695 21.5457 143.419 21.5457C139.837 21.5457 138.253 17.7333 138.253 10.5369V7.35808ZM143.301 28.0618C149.241 28.0618 152.589 19.8537 152.589 11.0661C152.589 3.60327 151.167 0.741255 146.191 0.741255H134.902C133.671 1.53686 132.778 5.55807 132.778 7.57048H134.866V9.53249C134.866 19.3785 136.403 28.0618 143.301 28.0618Z" fill="black"/>
<path d="M168.238 24.0887V9.26745C168.238 2.90982 166.157 0.742611 162.608 0.742611H156.826C155.674 2.33022 155.134 5.13463 154.943 7.62224H161.996C163.691 7.62224 164.498 8.63024 164.498 11.1719V28.1135C166.114 27.3179 167.579 25.5719 168.238 24.0887Z" fill="black"/>
<path d="M185.504 20.8071C185.428 20.5947 185.392 20.1771 185.392 19.4823V8.63184C185.392 2.17341 183.693 0.740608 179.801 0.740608H173.865C172.979 1.80261 172.173 5.34863 172.173 7.62384H178.88C180.73 7.62384 181.688 8.36544 181.688 11.2815V18.4239V20.2239V21.0699H173.059C172.367 21.9231 171.442 25.2027 171.359 27.5283H186.35C187.239 26.6355 188.009 23.1363 188.049 21.1275H186.166C185.813 21.1275 185.619 21.0699 185.504 20.8071Z" fill="black"/>
<path d="M192.521 0.741753H191.131C190.206 1.64176 189.439 5.24537 189.439 7.52058H191.441C192.33 7.52058 193.291 8.31258 193.291 9.79579C193.291 12.071 192.715 13.979 191.175 16.787C191.707 16.9958 194.098 16.1498 195.027 14.8286C196.261 13.0754 197.298 9.63379 197.298 6.51258C197.298 2.32936 194.836 0.741753 192.521 0.741753Z" fill="black"/>
<path d="M201.345 20.8597C200.459 21.7597 199.844 24.6757 199.649 27.5305H206.277H206.471C207.818 27.5305 209.092 25.9465 209.092 21.7057V9.31804C209.092 2.70121 206.471 0.742805 203.696 0.742805H202.735C201.809 1.43041 201.19 5.24282 201.039 7.51443H203.005C204.391 7.51443 205.276 8.83924 205.276 11.118V20.8597H201.345Z" fill="black"/>
<path d="M218.882 6.98668C218.882 1.90346 217.222 0.740658 214.72 0.740658H214.144H213.446C212.333 2.06546 211.635 5.08588 211.635 7.51949H213.716C214.799 7.51949 215.181 8.31149 215.181 9.6363V28.1116C216.876 27.262 217.953 25.8328 218.882 24.0868V6.98668Z" fill="black"/>
<path d="M236.843 0.741502H235.493C234.301 1.42551 233.527 5.39632 233.527 7.25393H234.492C235.647 7.25393 236.227 8.41673 236.227 9.58674C236.227 11.2787 235.453 12.9204 234.607 13.77C232.141 10.0583 227.864 4.07872 224.779 -0.000100363C223.659 0.583102 222.277 3.70791 222.277 4.82032L226.165 10.0583C224.044 13.0248 222.543 17.316 222.543 22.1832C222.543 27.054 223.814 27.5328 225.7 27.5328H227.364C228.325 26.9532 229.02 23.5044 229.02 21.2292H227.63C226.708 21.2292 226.093 20.3832 226.093 18.6372C226.093 16.254 227.054 13.6584 228.019 12.7044C231.212 16.9452 236.029 24.3 238.499 28.4868C239.265 27.9036 240.849 25.0956 240.968 23.5044L236.378 16.362C238.304 14.0292 240.198 10.6955 240.198 6.40793C240.198 2.27871 238.538 0.741502 236.843 0.741502Z" fill="black"/>
<path d="M16.2397 62.4637C17.4637 60.6133 18.0757 57.9853 18.0757 54.5797V41.7636C18.0757 40.4784 18.2305 39.6504 18.5365 39.294C18.8425 38.9304 19.4653 38.628 20.4193 38.3832V37.368H13.8673V38.3832C15.0121 38.502 15.7825 38.8332 16.1749 39.3696C16.5709 39.9132 16.7653 40.9032 16.7653 42.336V54.5905C16.7653 56.8477 16.5421 58.6045 16.0993 59.8609C15.2929 62.1433 13.7449 63.2845 11.4552 63.2845C9.61204 63.2845 8.36284 62.2549 7.71483 60.1885C7.35483 59.0797 7.17483 57.5065 7.17483 55.4653V42.0408C7.17483 40.5108 7.36923 39.528 7.75803 39.1032C8.14683 38.6748 8.91724 38.4372 10.0728 38.3832V37.368H0V38.3832C1.0368 38.538 1.70641 38.8116 1.99801 39.2004C2.29681 39.5892 2.44441 40.536 2.44441 42.0408V55.4545C2.44441 57.7657 2.77921 59.6485 3.44881 61.1137C4.71602 63.8677 7.05243 65.2429 10.476 65.2429C13.0969 65.2429 15.0193 64.3177 16.2397 62.4637Z" fill="black"/>
<path d="M31.0301 62.8927C30.8357 63.1411 30.4685 63.3355 29.9321 63.4867V64.4407H36.9413V63.4867C36.4013 63.3931 36.0233 63.2203 35.7965 62.9575C35.5661 62.6947 35.4545 62.1151 35.4545 61.2115V51.5274C35.4545 49.3026 35.1017 47.7438 34.3997 46.8546C33.6941 45.969 32.7005 45.5226 31.4189 45.5226C30.5297 45.5226 29.7161 45.843 28.9853 46.473C28.2509 47.1066 27.6497 47.9022 27.1709 48.867V45.9942H21.5225V46.9518C22.1633 47.0562 22.5917 47.2686 22.7969 47.5818C23.0093 47.8986 23.1101 48.4638 23.1101 49.281V61.0603C23.1101 61.9711 22.9805 62.5795 22.7249 62.8855C22.4657 63.1951 22.0661 63.3931 21.5225 63.4867V64.4407H28.7009V63.4867C28.1645 63.3355 27.8045 63.1411 27.6065 62.8927C27.4121 62.6479 27.3185 62.0827 27.3185 61.2115V50.4906C27.5525 49.983 27.8837 49.479 28.3121 48.9786C28.7441 48.4746 29.2193 48.2226 29.7341 48.2226C30.4217 48.2226 30.8861 48.6366 31.1093 49.4574C31.2533 49.9146 31.3217 50.5986 31.3217 51.5094V61.2115C31.3217 62.0827 31.2245 62.6479 31.0301 62.8927Z" fill="black"/>
<path d="M45.2051 63.4833C44.6687 63.3393 44.3051 63.1413 44.1107 62.8929C43.9163 62.6481 43.8191 62.0865 43.8191 61.2117V45.9944H38.0986V46.9556C38.6998 47.096 39.1102 47.3192 39.3046 47.618C39.5134 47.9096 39.6106 48.4641 39.6106 49.2813V61.0605C39.6106 61.9713 39.4702 62.5977 39.1714 62.9541C38.9806 63.1917 38.6242 63.3645 38.0986 63.4833V64.4409H45.2051V63.4833Z" fill="black"/>
<path d="M41.7209 42.9785C42.3545 42.9785 42.8945 42.6761 43.3445 42.0713C43.8017 41.4665 44.0249 40.7285 44.0249 39.8645C44.0249 39.0077 43.8017 38.2769 43.3445 37.6721C42.8945 37.0601 42.3545 36.7577 41.7209 36.7577C41.0837 36.7577 40.5365 37.0601 40.0865 37.6721C39.6365 38.2769 39.4097 39.0077 39.4097 39.8645C39.4097 40.7285 39.6365 41.4665 40.0865 42.0713C40.5365 42.6761 41.0837 42.9785 41.7209 42.9785Z" fill="black"/>
<path d="M47.8657 48.635C48.1285 49.3262 48.3769 50.0426 48.6109 50.7734C48.8485 51.5042 49.0969 52.2854 49.3489 53.1206L52.9273 65.0115H53.6833L58.4858 49.1282C58.7306 48.3326 58.979 47.7782 59.2274 47.4722C59.4794 47.1662 59.8034 46.9898 60.2066 46.9538V45.9926H55.7029V46.9538C56.2321 46.9682 56.6389 47.051 56.9233 47.195C57.2042 47.3498 57.341 47.7026 57.341 48.2642C57.341 48.4586 57.3122 48.725 57.2474 49.067C57.1898 49.4054 57.107 49.7366 57.0062 50.0606L54.9361 56.915H54.8389L52.5169 49.2254C52.4773 49.0922 52.4269 48.887 52.3513 48.6062C52.2829 48.329 52.2469 48.131 52.2469 48.0266C52.2469 47.6018 52.3801 47.321 52.6429 47.1878C52.9093 47.0582 53.3125 46.979 53.8345 46.9538V45.9926H46.3789V46.9538C46.7857 47.0042 47.0701 47.1194 47.2177 47.303C47.3797 47.4902 47.5921 47.9294 47.8657 48.635Z" fill="black"/>
<path d="M66.0945 48.3998C66.3825 47.3198 66.9153 46.7762 67.6929 46.7762C68.4489 46.7762 68.9565 47.2478 69.2121 48.1838C69.4677 49.1234 69.6045 50.7758 69.6189 53.1338H65.6049C65.6445 51.0638 65.8065 49.4834 66.0945 48.3998ZM67.5057 65.0103C68.5245 65.0103 69.4245 64.7511 70.2201 64.2507C71.4297 63.4514 72.4989 62.0366 73.4206 59.999L72.7365 59.4338C72.1713 60.2654 71.7033 60.8594 71.3217 61.2122C70.6989 61.8026 70.0401 62.0942 69.3345 62.0942C67.8693 62.0942 66.8397 60.9926 66.2601 58.7894C65.9397 57.6158 65.7453 56.2226 65.6733 54.6206H73.291C73.291 54.257 73.2514 53.7278 73.1866 53.0366C73.057 51.5642 72.8085 50.3654 72.4593 49.4366C71.9949 48.209 71.3289 47.2514 70.4613 46.5602C69.5973 45.869 68.6793 45.5234 67.6929 45.5234C65.9757 45.5234 64.5069 46.3766 63.2865 48.0758C62.0661 49.7822 61.4541 52.169 61.4541 55.2434C61.4541 58.6526 62.1021 61.1258 63.3837 62.681C64.6653 64.2327 66.0369 65.0103 67.5057 65.0103Z" fill="black"/>
<path d="M80.9661 49.9357C81.3693 49.2769 81.7725 48.9493 82.1721 48.9493C82.3557 48.9493 82.6797 49.3453 83.1441 50.1409C83.6013 50.9365 84.1521 51.3325 84.7821 51.3325C85.3329 51.3325 85.7901 51.0805 86.1321 50.5693C86.4777 50.0617 86.6505 49.4173 86.6505 48.6361C86.6505 47.6209 86.4057 46.8433 85.9125 46.3177C85.4193 45.7885 84.8721 45.5257 84.2565 45.5257C83.4393 45.5257 82.7229 45.8497 82.0965 46.5013C81.4773 47.1529 80.8509 48.0349 80.2173 49.1437V45.9937H74.5688V46.9513C75.1989 47.0557 75.6237 47.2573 75.8325 47.5633C76.0521 47.8657 76.1565 48.4345 76.1565 49.2805V60.1742L76.1277 61.3514C76.1025 62.1326 75.9873 62.6618 75.7677 62.9354C75.5409 63.209 75.1449 63.3926 74.5688 63.4862V64.4402H82.5033V63.4862C81.6465 63.3782 81.0777 63.1622 80.7933 62.831C80.5053 62.4998 80.3649 61.6754 80.3649 60.3506V52.7689C80.3649 51.5341 80.5665 50.5945 80.9661 49.9357Z" fill="black"/>
<path d="M89.1434 64.1182L89.5754 63.8554L89.7374 63.8734L90.083 64.0282L90.5906 64.2658C91.1846 64.5394 91.685 64.7302 92.0846 64.8454C92.4878 64.9534 92.8838 65.011 93.2834 65.011C94.889 65.011 96.0878 64.3666 96.887 63.0814C97.6826 61.7962 98.0858 60.4102 98.0858 58.9234C98.0858 57.397 97.697 56.1189 96.9266 55.0713C96.455 54.4557 95.717 53.8257 94.7126 53.1705L93.0782 52.1193C92.2934 51.6117 91.7606 51.1113 91.4798 50.6289C91.1882 50.1609 91.0406 49.6929 91.0406 49.2249C91.0406 48.6489 91.2026 48.1125 91.5302 47.6193C91.8578 47.1225 92.351 46.8705 93.0062 46.8705C93.8594 46.8705 94.6118 47.2845 95.249 48.1053C95.8898 48.9261 96.3506 50.0169 96.6314 51.3741H97.3838V45.5781H96.7358C96.6674 45.8265 96.581 46.0209 96.4802 46.1613C96.3758 46.2981 96.2066 46.3593 95.9654 46.3593C95.7926 46.3593 95.3462 46.2225 94.637 45.9453C93.9314 45.6645 93.2618 45.5241 92.6282 45.5241C91.1846 45.5241 90.0614 46.0857 89.2478 47.2197C88.4486 48.3465 88.049 49.6857 88.049 51.2373C88.049 52.4613 88.3046 53.5269 88.8122 54.4233C89.3234 55.3269 90.1586 56.1622 91.3178 56.929L93.5354 58.3762C94.007 58.6894 94.349 58.9846 94.5686 59.2546C94.9538 59.7658 95.1446 60.3778 95.1446 61.0978C95.1446 61.8538 94.9646 62.4622 94.6118 62.923C94.2482 63.3874 93.6866 63.6214 92.9234 63.6214C92.0846 63.6214 91.271 63.2254 90.4754 62.437C89.6762 61.6486 89.1398 60.2914 88.8482 58.3762H88.0166V65.011H88.733C88.8878 64.5934 89.0246 64.2946 89.1434 64.1182Z" fill="black"/>
<path d="M102.96 42.9785C103.593 42.9785 104.133 42.6761 104.583 42.0713C105.04 41.4665 105.264 40.7285 105.264 39.8645C105.264 39.0077 105.04 38.2769 104.583 37.6721C104.133 37.0601 103.593 36.7577 102.96 36.7577C102.322 36.7577 101.775 37.0601 101.325 37.6721C100.875 38.2769 100.648 39.0077 100.648 39.8645C100.648 40.7285 100.875 41.4665 101.325 42.0713C101.775 42.6761 102.322 42.9785 102.96 42.9785Z" fill="black"/>
<path d="M105.059 61.2119V45.9911H99.3389V46.9559C99.9437 47.0963 100.343 47.3159 100.548 47.6183C100.75 47.9099 100.854 48.4643 100.854 49.2815V61.0571C100.854 61.968 100.707 62.6016 100.415 62.9544C100.221 63.192 99.8681 63.3648 99.3389 63.4836V64.4412H106.445V63.4836C105.905 63.3396 105.549 63.1416 105.354 62.8932C105.153 62.6484 105.059 62.0868 105.059 61.2119Z" fill="black"/>
<path d="M115.641 63.1495C116.127 62.4583 116.541 61.5691 116.894 60.4711L116.181 59.9995C115.918 60.6511 115.655 61.1659 115.396 61.5295C115.133 61.9075 114.806 62.0947 114.417 62.0947C113.971 62.0947 113.65 61.7995 113.459 61.2127C113.33 60.8347 113.269 60.3667 113.269 59.8087V47.7559H116.109V45.9919H113.269V39.2238H112.509C111.775 40.7502 110.954 42.1794 110.05 43.5078C109.597 44.1918 109.114 44.847 108.599 45.4842C108.207 45.927 107.887 46.3159 107.62 46.6435V47.7559H109.165V60.7483C109.172 62.5339 109.676 63.7615 110.684 64.4419C111.209 64.7947 111.818 64.9675 112.513 64.9675C113.747 64.9675 114.788 64.3591 115.641 63.1495Z" fill="black"/>
<path d="M120.433 67.512C120.105 67.1376 119.691 66.9468 119.183 66.9468C118.607 66.9468 118.107 67.1592 117.689 67.5876C117.272 68.0196 117.063 68.6928 117.063 69.6072C117.063 70.374 117.315 71.0832 117.819 71.724C118.327 72.3792 119.065 72.696 120.033 72.696C121.365 72.696 122.341 72.1668 122.967 71.112C123.59 70.0572 124.331 68.052 125.199 65.1072L129.656 49.1231C129.915 48.1979 130.171 47.6147 130.415 47.3699C130.664 47.1323 130.984 46.9883 131.366 46.9487V45.9911H126.855V46.9487C127.406 46.9667 127.809 47.0495 128.086 47.1935C128.367 47.3483 128.504 47.7047 128.504 48.2663C128.504 48.4895 128.468 48.7451 128.407 49.0367C128.342 49.3319 128.266 49.6739 128.165 50.0664L126.207 57.1008H126.056L123.683 49.2239C123.568 48.8171 123.493 48.5363 123.464 48.3815L123.406 48.0107C123.406 47.5787 123.557 47.2979 123.853 47.1683C124.144 47.0387 124.529 46.9667 124.997 46.9487V45.9911H117.542V46.9487C117.952 47.0063 118.237 47.1215 118.391 47.3051C118.546 47.4887 118.759 47.9315 119.032 48.6335C119.291 49.3283 119.54 50.0412 119.777 50.7756C120.019 51.5028 120.263 52.2912 120.512 53.1228L124.047 64.8552C123.521 66.8136 123.115 68.1312 122.834 68.7972C122.387 69.8844 121.905 70.4244 121.39 70.4244L121.001 70.212L120.85 69.744L120.926 68.862C120.926 68.3436 120.757 67.8864 120.433 67.512Z" fill="black"/>
<path d="M144.785 49.3803C145.131 47.6451 145.804 46.7775 146.809 46.7775C147.734 46.7775 148.353 47.4435 148.666 48.7827C148.983 50.1183 149.141 52.282 149.141 55.2664C149.141 58.2688 148.99 60.4324 148.688 61.7608C148.389 63.0928 147.759 63.7552 146.801 63.7552C145.786 63.7552 145.117 62.8912 144.778 61.156C144.562 60.0364 144.458 58.0708 144.458 55.2664C144.458 52.5016 144.562 50.5395 144.785 49.3803ZM146.801 65.0476C148.792 65.0476 150.416 64.0864 151.658 62.164C152.904 60.238 153.523 57.9376 153.523 55.2664C153.523 52.552 152.896 50.2443 151.636 48.3399C150.38 46.4391 148.767 45.4851 146.801 45.4851C144.865 45.4851 143.263 46.4175 141.988 48.2823C140.714 50.1435 140.077 52.4764 140.077 55.2664C140.077 58.0492 140.71 60.3676 141.981 62.2396C143.252 64.1152 144.861 65.0476 146.801 65.0476Z" fill="black"/>
<path d="M162.283 41.1241C162.283 41.7109 162.452 42.2113 162.791 42.6253C163.129 43.0465 163.539 43.2553 164.015 43.2553C164.587 43.2553 165.048 43.0249 165.386 42.5713C165.739 42.1105 165.908 41.5129 165.908 40.7677C165.908 39.5797 165.498 38.6257 164.677 37.9021C163.856 37.1821 162.852 36.8221 161.671 36.8221C159.45 36.8221 157.923 37.9453 157.103 40.1845C156.663 41.3833 156.447 42.9133 156.447 44.7817V46.2649H154.727V48.0289H156.447V61.061C156.447 62.0078 156.314 62.6342 156.048 62.9366C155.778 63.2354 155.339 63.419 154.727 63.4838V64.4414H163.01V63.4838C161.991 63.3938 161.333 63.1922 161.037 62.8754C160.742 62.5658 160.595 61.7126 160.595 60.3338V48.0289H163.187V46.2649H160.595V41.0845C160.595 39.8317 160.724 39.0181 160.991 38.6401C161.253 38.2621 161.621 38.0713 162.11 38.0713C162.312 38.0713 162.499 38.1181 162.675 38.2081C162.848 38.2981 162.938 38.5069 162.938 38.8345C162.938 38.9389 162.827 39.2305 162.611 39.7273C162.395 40.2133 162.283 40.6777 162.283 41.1241Z" fill="black"/>
<path d="M192.465 38.8861C192.785 38.6449 193.379 38.4721 194.254 38.3785V37.3669H184.109V38.3785C185.016 38.4613 185.628 38.6197 185.96 38.8717C186.496 39.2677 186.762 40.0453 186.762 41.2009V49.517H179.656V41.2009C179.656 40.0453 179.94 39.2641 180.502 38.8501C180.84 38.6017 181.445 38.4433 182.324 38.3785V37.3669H172.236V38.3785C173.118 38.4973 173.709 38.6809 174.011 38.9041C174.508 39.3109 174.753 40.0741 174.753 41.2009V60.605C174.753 61.7678 174.476 62.5562 173.925 62.9738C173.597 63.2222 173.032 63.3734 172.236 63.4274V64.4426H182.324V63.4274C181.496 63.3878 180.909 63.251 180.56 63.0134C179.955 62.5958 179.656 61.793 179.656 60.605V51.3746H186.762V60.605C186.762 61.7534 186.482 62.5346 185.931 62.9558C185.571 63.2258 184.966 63.3878 184.109 63.4274V64.4426H194.254V63.4274C193.458 63.3878 192.89 63.2402 192.551 62.9918C191.957 62.5742 191.662 61.7786 191.662 60.605V41.2009C191.662 40.0597 191.932 39.2929 192.465 38.8861Z" fill="black"/>
<path d="M201.503 55.8369C202.104 55.2753 202.803 54.8613 203.602 54.6021V60.4665C203.278 60.9597 203.004 61.3269 202.767 61.5646C202.353 61.957 201.899 62.1514 201.417 62.1514C201.046 62.1514 200.715 61.9282 200.42 61.4782C200.121 61.0245 199.977 60.3621 199.977 59.4837C199.977 58.0077 200.484 56.7909 201.503 55.8369ZM200.848 64.5778C201.885 64.117 202.817 63.3358 203.642 62.2198C203.75 62.9974 203.922 63.577 204.149 63.9694C204.556 64.6606 205.204 65.0098 206.082 65.0098C206.579 65.0098 207.055 64.891 207.501 64.657C208.207 64.2934 208.851 63.6562 209.434 62.7382L208.981 61.8958C208.79 62.1586 208.646 62.317 208.552 62.3782L208.239 62.4646C208.106 62.4646 207.983 62.3602 207.872 62.1622C207.757 61.9606 207.703 61.7122 207.703 61.4278V51.7221C207.703 49.3533 207.137 47.7225 206.014 46.8333C204.876 45.9585 203.465 45.5229 201.78 45.5229C200.207 45.5229 198.882 45.9729 197.806 46.8693C196.73 47.7693 196.19 48.9825 196.19 50.5197C196.19 51.3765 196.391 52.0317 196.791 52.4925C197.198 52.9461 197.687 53.1729 198.263 53.1729C198.753 53.1729 199.188 52.9677 199.559 52.5573C199.934 52.1505 200.117 51.5601 200.117 50.8041C200.117 50.5053 200.078 50.2209 199.991 49.9581C199.916 49.6881 199.804 49.4433 199.671 49.2237L199.494 48.9501L199.318 48.6153L199.26 48.2229C199.26 47.8197 199.437 47.4849 199.779 47.2149C200.121 46.9485 200.56 46.8153 201.1 46.8153C202.043 46.8153 202.709 47.0997 203.08 47.6613C203.454 48.2337 203.642 49.1121 203.642 50.2965V53.2125C200.888 54.2817 198.868 55.3473 197.576 56.4057C196.283 57.4677 195.635 58.8933 195.635 60.6969C195.635 62.1766 195.992 63.2638 196.701 63.9622C197.406 64.6606 198.17 65.0098 198.983 65.0098C199.595 65.0098 200.218 64.8622 200.848 64.5778Z" fill="black"/>
<path d="M211.34 62.9544C211.146 63.192 210.789 63.3648 210.264 63.4836V64.4412H217.367V63.4836C216.83 63.3396 216.47 63.1416 216.276 62.8932C216.078 62.6484 215.984 62.0868 215.984 61.2119V45.9947H210.264V46.9523C210.868 47.0963 211.264 47.3195 211.47 47.6183C211.678 47.9099 211.776 48.4643 211.776 49.2815V61.0571C211.776 61.9716 211.632 62.598 211.34 62.9544Z" fill="black"/>
<path d="M213.889 42.9785C214.519 42.9785 215.059 42.6761 215.509 42.0713C215.962 41.4665 216.189 40.7285 216.189 39.8645C216.189 39.0077 215.962 38.2769 215.509 37.6721C215.059 37.0601 214.519 36.7577 213.889 36.7577C213.244 36.7577 212.701 37.0601 212.251 37.6721C211.797 38.2769 211.574 39.0077 211.574 39.8645C211.574 40.7285 211.797 41.4665 212.251 42.0713C212.701 42.6761 213.244 42.9785 213.889 42.9785Z" fill="black"/>
<path d="M226.025 41.1241C226.025 41.7109 226.198 42.2113 226.533 42.6253C226.871 43.0465 227.282 43.2553 227.757 43.2553C228.333 43.2553 228.79 43.0249 229.132 42.5713C229.478 42.1105 229.647 41.5129 229.647 40.7677C229.647 39.5797 229.236 38.6257 228.423 37.9021C227.598 37.1821 226.594 36.8221 225.413 36.8221C223.192 36.8221 221.666 37.9453 220.848 40.1845C220.406 41.3833 220.186 42.9133 220.186 44.7817V46.2649H218.469V48.0289H220.186V61.061C220.186 62.0078 220.056 62.6342 219.79 62.9366C219.52 63.2354 219.077 63.419 218.469 63.4838V64.4414H226.756V63.4838C225.73 63.3938 225.075 63.1922 224.78 62.8754C224.484 62.5658 224.337 61.7126 224.337 60.3338V48.0289H226.929V46.2649H224.337V41.0845C224.337 39.8317 224.466 39.0181 224.733 38.6401C224.992 38.2621 225.363 38.0713 225.849 38.0713C226.054 38.0713 226.245 38.1181 226.418 38.2081C226.59 38.2981 226.68 38.5069 226.68 38.8345C226.68 38.9389 226.569 39.2305 226.353 39.7273C226.137 40.2133 226.025 40.6777 226.025 41.1241Z" fill="black"/>
<path d="M236.706 60.4634C236.385 60.9638 236.112 61.3274 235.881 61.565C235.457 61.9574 235.007 62.1554 234.528 62.1554C234.153 62.1554 233.826 61.9286 233.527 61.475C233.232 61.025 233.084 60.3662 233.084 59.4842C233.084 58.0082 233.592 56.7878 234.611 55.8338C235.212 55.2722 235.91 54.8618 236.706 54.6026V60.4634ZM240.81 51.7226C240.81 49.3538 240.248 47.7194 239.121 46.8302C237.984 45.9626 236.576 45.527 234.888 45.527C233.318 45.527 231.99 45.9734 230.913 46.8698C229.837 47.7698 229.293 48.9866 229.293 50.5166C229.293 51.3806 229.498 52.0322 229.905 52.4966C230.305 52.9502 230.791 53.1698 231.371 53.1698C231.86 53.1698 232.296 52.9682 232.67 52.5542C233.041 52.1474 233.228 51.5606 233.228 50.801C233.228 50.5058 233.185 50.225 233.102 49.955C233.023 49.6886 232.911 49.4438 232.778 49.2206L232.605 48.947L232.433 48.6158L232.371 48.2234C232.371 47.8202 232.544 47.4854 232.883 47.2154C233.232 46.949 233.667 46.8158 234.204 46.8158C235.151 46.8158 235.82 47.1038 236.187 47.6618C236.562 48.2342 236.749 49.109 236.749 50.297V53.213C233.995 54.2858 231.975 55.3478 230.679 56.4062C229.394 57.4646 228.746 58.8938 228.746 60.6974C228.746 62.1734 229.102 63.2606 229.808 63.9626C230.514 64.6575 231.277 65.0103 232.094 65.0103C232.706 65.0103 233.325 64.8663 233.955 64.5783C234.992 64.1211 235.928 63.3326 236.749 62.2238C236.861 62.9978 237.026 63.5774 237.257 63.9698C237.667 64.6575 238.311 65.0103 239.193 65.0103C239.69 65.0103 240.162 64.8915 240.608 64.6539C241.314 64.2939 241.962 63.653 242.541 62.7386L242.095 61.8962C241.897 62.159 241.749 62.3174 241.663 62.375L241.35 62.465C241.217 62.465 241.091 62.3642 240.983 62.159C240.867 61.9574 240.81 61.7162 240.81 61.4282V51.7226Z" fill="black"/>
<path d="M38.0015 86.3017L34.3187 82.6261L31.2803 85.4485L35.0783 89.0305L38.0015 86.3017Z" fill="black"/>
<path d="M36.6755 104.901L34.0799 106.525L33.8171 106.643L33.5219 106.773C33.4067 106.773 33.1835 106.643 32.8667 106.402L30.1379 104.199C30.5843 103.238 31.3259 102.226 32.3735 101.161C33.4175 100.102 34.2923 99.5694 35.0267 99.5694C36.3227 99.5694 36.9707 100.649 36.9707 102.817C36.9707 103.573 36.8771 104.264 36.6755 104.901ZM92.9905 102.507C90.0025 101.467 86.6761 99.9222 83.0221 97.8522C81.2941 96.891 79.9657 96.4122 79.0477 96.4122C77.8201 96.4122 76.5132 97.143 75.1272 98.6226L73.2336 100.549C73.7988 100.423 74.1876 100.369 74.3856 100.369C75.5628 100.369 77.1181 100.851 79.0477 101.837C80.9773 102.817 82.8205 104.062 84.5917 105.574C83.5837 105.963 82.6405 106.525 81.7549 107.259H65.8068V107.263H60.2628L58.1064 99.4146L54.6 102.997L55.8096 107.263H47.5259H46.6115H38.4071C40.0235 104.505 40.8299 102.025 40.8299 99.8142C40.8299 98.1762 40.4123 96.8046 39.5699 95.6922C38.7167 94.5798 37.6871 94.0254 36.4703 94.0254C34.1483 94.0254 31.0847 96.873 27.2938 102.572C26.1346 104.332 25.555 105.689 25.555 106.643C25.555 106.892 25.5982 107.093 25.6774 107.263H18.4558H17.5162H13.6138C12.4726 107.263 11.8246 107.093 11.6734 106.773C11.5078 106.445 11.4358 105.779 11.4358 104.779V79.4706L6.83496 84.4926V109.775L6.88896 110.963C6.93216 111.964 7.21656 112.583 7.75296 112.821C8.28216 113.055 8.78977 113.177 9.25417 113.177H17.5162H18.4558H29.8391L31.6103 111.737L33.8171 113.177H46.6115H47.5259H55.3128L56.904 111.244L57.4908 113.177H65.8068H66.7248H79.7821C80.6641 113.177 81.2725 113.102 81.5821 112.954C81.9025 112.821 82.4065 112.385 83.1445 111.673C85.4845 109.401 88.3177 108.271 91.6585 108.271C92.8645 108.271 94.3549 108.465 96.1441 108.854L99.2149 103.767L98.5345 103.709C96.5293 103.504 94.6789 103.105 92.9905 102.507Z" fill="black"/>
<path d="M127.281 85.9975L129.643 88.2043L132.681 85.4467L128.926 81.8611L126.457 84.0643L124.21 81.8611L121.183 84.5539L124.862 88.2043L127.281 85.9975Z" fill="black"/>
<path d="M190.222 109.472L180.801 105.205L181.121 104.773C183.443 101.382 185.095 99.6939 186.1 99.6939C186.906 99.6939 187.759 100.295 188.667 101.505C189.858 103.132 190.47 105.105 190.47 107.412C190.47 107.945 190.387 108.629 190.222 109.472ZM156.068 100.443C155.647 99.8631 155.075 99.3555 154.344 98.9235C155.316 98.7579 155.993 98.6751 156.407 98.6751C157.602 98.6751 158.207 99.1035 158.207 99.9387C158.207 100.529 157.782 101.35 156.947 102.387C156.788 101.674 156.497 101.019 156.068 100.443ZM118.405 105.141C118.56 104.467 118.967 103.949 119.622 103.585L126.332 99.7515L127.661 106.588L118.405 105.141ZM187.14 94.7906C185.967 94.7906 184.897 95.2874 183.893 96.2918C183.047 97.1307 181.744 98.7579 179.962 101.199L175.487 107.261H169.263H157.915L158.441 106.523C160.392 103.848 161.648 101.735 162.188 100.18C162.448 99.5103 162.57 98.7543 162.57 97.9191C162.57 94.5242 160.5 92.8286 156.356 92.8286C154.135 92.8286 151.482 93.2714 148.426 94.1498L145.715 100.245C149.264 100.493 151.55 102.829 152.548 107.261H138.335H132.474L129.403 91.4498L125.357 95.093L125.656 96.4682L117.699 101.015C116.774 101.505 116.213 102.009 115.997 102.523C115.799 103.049 115.633 103.477 115.511 103.823L113.455 110.357L126.516 112.344L128.316 109.652L129.054 113.176H138.335H139.195H152.548L154.168 111.153L155.093 113.176H168.406H169.263H175.548L177.435 110.105L190.405 115.93L190.701 115.379C192.396 112.19 193.408 110.246 193.739 109.533C194.293 108.363 194.567 107.401 194.567 106.645C194.567 104.421 193.775 101.893 192.202 99.0459C190.632 96.2054 188.944 94.7906 187.14 94.7906Z" fill="black"/>
<path d="M224.257 120.129L228.001 123.834L230.949 120.957L227.205 117.372L224.257 120.129Z" fill="black"/>
<path d="M242.369 103.711C240.353 103.502 238.507 103.106 236.815 102.509C233.83 101.465 230.507 99.9239 226.853 97.8539C225.118 96.8891 223.793 96.4139 222.872 96.4139C221.655 96.4139 220.345 97.1447 218.955 98.6207L217.065 100.547C217.637 100.424 218.012 100.367 218.217 100.367C219.387 100.367 220.946 100.853 222.872 101.839C224.798 102.818 226.648 104.064 228.412 105.572C227.411 105.961 226.465 106.523 225.583 107.257H209.631V107.261H205.739C204.602 107.261 203.946 107.095 203.799 106.775C203.633 106.447 203.558 105.778 203.558 104.777V79.4723L198.96 84.4907V109.777L199.018 110.965C199.068 111.962 199.349 112.582 199.875 112.823C200.4 113.057 200.901 113.176 201.369 113.176H209.631V113.179H223.61C224.495 113.179 225.089 113.1 225.403 112.956C225.719 112.823 226.245 112.387 226.969 111.671C229.309 109.403 232.153 108.272 235.486 108.272C236.689 108.272 238.183 108.463 239.968 108.852L243.043 103.769L242.369 103.711Z" fill="black"/>
<g opacity="0.49">
<path opacity="0.65" d="M365.738 2.29157L257.71 73.6329C257.71 73.6329 256.687 73.8759 256.687 76.7974C256.687 79.7137 256.805 116.612 256.687 116.612C256.687 116.612 257.271 120.279 260.446 120.279C261.413 120.279 262.628 119.937 264.143 119.038L368.422 50.4419L365.738 2.29157Z" fill="black"/>
<path opacity="0.67" d="M463.7 62.275L425.245 86.6398L423.595 86.5984L474.667 119.081C476.182 119.981 477.397 120.322 478.369 120.322C481.539 120.322 482.123 116.667 482.123 116.667C482.035 116.667 482.123 79.773 482.123 76.836C482.123 73.9145 481.105 73.6611 481.105 73.6611L463.7 62.275ZM409.257 23.5872L368.423 50.4443L368.428 50.5684L385.161 62.2388C385.161 62.2388 415.973 41.7729 426 35.2473L422.814 32.9618C422.814 32.9618 416.852 28.8407 409.257 23.5872Z" fill="black"/>
<path opacity="0.61" d="M371.722 0.245613C367.983 0.245613 365.739 2.29324 365.739 2.29324L368.423 50.4436L409.257 23.5865C406.392 21.601 403.29 19.4603 400.192 17.3195C391.459 11.2852 382.71 5.24576 379.121 2.79481C376.288 0.866108 373.775 0.245613 371.722 0.245613Z" fill="black"/>
<path opacity="0.52" d="M520.149 22.9107L480.458 50.5899L496.979 61.4227L535.982 86.8371L587.251 120.246C589.536 121.812 591.222 122.407 592.453 122.407C595.188 122.407 595.7 119.496 595.7 117.831V75.1305C595.7 72.7209 593.357 70.8956 593.357 70.8956L578.915 61.2366V61.159L577.256 60.0783L535.982 86.8371L496.979 61.4227C496.979 61.4227 528.873 41.0085 538.511 34.8604L537.523 34.2244L520.149 22.9107Z" fill="black"/>
<path opacity="0.83" d="M591.93 1.21781C589.256 1.21781 586.898 3.42573 586.898 3.42573L541.225 33.1371C541.122 33.1991 540.129 33.83 538.51 34.8641L577.255 60.082L592.705 50.0662C596.402 46.5553 595.534 43.246 595.534 43.246V5.35444C595.534 2.73285 594.582 1.21781 591.93 1.21781Z" fill="black"/>
<path opacity="0.64" d="M538.509 34.8609C528.871 41.0038 496.978 61.4232 496.978 61.4232L535.981 86.8376L577.254 60.0788L538.509 34.8609Z" fill="black"/>
<path d="M385.159 62.2365L367.748 73.6329C367.748 73.6329 366.719 73.8759 366.719 76.7974C366.719 79.7137 366.818 116.612 366.719 116.612C366.719 116.612 367.304 120.279 370.494 120.279C371.477 120.279 372.697 119.937 374.217 119.038L423.598 86.5961L385.159 62.2365ZM476.133 2.38465L441.556 25.0792L428.867 33.4094C428.428 33.6782 427.425 34.3246 425.997 35.245L463.698 62.2727L480.461 50.5919L441.556 25.0792L476.133 2.38465Z" fill="black"/>
<path opacity="0.71" d="M425.999 35.247C415.973 41.7725 385.16 62.2385 385.16 62.2385L423.595 86.598L425.244 86.6394L463.699 62.2747L425.999 35.247Z" fill="black"/>
<path d="M482.056 0.399233C478.364 0.399233 476.13 2.38481 476.13 2.38481L441.558 25.0794L480.458 50.592L520.149 22.9128L489.522 2.97945C486.668 1.0249 484.129 0.399233 482.056 0.399233Z" fill="black"/>
</g>
</svg>
